<svg width="24" height="24" viewBox="0 0 24 24" fill="none" xmlns="http://www.w3.org/2000/svg">
<g id="icons8-insta 1">
<path id="Vector" d="M11.9012 1C1.79162 1 1 1.79162 1 11.9012V12.0988C1 22.2084 1.79162 23 11.9012 23H12.0988C22.2084 23 23 22.2084 23 12.0988V12C23 1.7986 22.2014 1 12 1H11.9012ZM9.8 3.2H14.2C20.3209 3.2 20.8 3.67905 20.8 9.8V14.2C20.8 20.3209 20.3209 20.8 14.2 20.8H9.8C3.67905 20.8 3.2 20.3209 3.2 14.2V9.8C3.2 3.67905 3.67905 3.2 9.8 3.2ZM17.4968 5.4C16.889 5.40165 16.3984 5.89547 16.4 6.50322C16.4017 7.11097 16.8955 7.60165 17.5032 7.6C18.111 7.59835 18.6017 7.10453 18.6 6.49678C18.5984 5.88903 18.1045 5.39835 17.4968 5.4ZM11.9871 6.5C8.95001 6.50715 6.49285 8.97579 6.5 12.0129C6.50715 15.05 8.97579 17.5072 12.0129 17.5C15.05 17.4929 17.5072 15.0242 17.5 11.9871C17.4929 8.95001 15.0242 6.49285 11.9871 6.5ZM11.9925 8.7C13.8146 8.6956 15.2956 10.1703 15.3 11.9925C15.3039 13.8146 13.8297 15.2956 12.0075 15.3C10.1854 15.3044 8.7044 13.8302 8.7 12.0075C8.6956 10.1854 10.1703 8.7044 11.9925 8.7Z" fill="#273775"/>
</g>
</svg>
