<svg width="24" height="24" viewBox="0 0 24 24" fill="none" xmlns="http://www.w3.org/2000/svg">
<g id="icons8-linkedin 1">
<path id="Vector" d="M7.2002 19.9999H3.2002V7.9999H7.2002V19.9999ZM5.201 6.3999C4.0946 6.3999 3.2002 5.5031 3.2002 4.3991C3.2002 3.2951 4.0962 2.3999 5.201 2.3999C6.3034 2.3999 7.2002 3.2967 7.2002 4.3991C7.2002 5.5031 6.3034 6.3999 5.201 6.3999ZM21.6002 19.9999H17.7546V14.1599C17.7546 12.7671 17.7282 10.9759 15.7554 10.9759C13.753 10.9759 13.445 12.4927 13.445 14.0591V19.9999H9.6002V7.9911H13.2914V9.6319H13.3434C13.857 8.6879 15.1122 7.6927 16.9842 7.6927C20.8802 7.6927 21.6002 10.1799 21.6002 13.4135V19.9999Z" fill="#273775"/>
</g>
</svg>
