<svg width="24" height="24" viewBox="0 0 24 24" fill="none" xmlns="http://www.w3.org/2000/svg">
<path d="M17.8323 10.5551C17.5198 10.3784 17.221 10.1882 16.8679 9.98445C17.221 9.76712 17.5472 9.57689 17.8596 9.40023C19.3132 8.61223 20.1147 7.00934 19.8701 5.37912C19.5167 2.70312 16.433 1.15468 14.0965 2.48579C11.7056 3.85801 9.31475 5.2029 6.95097 6.61556C5.07631 7.74312 4.80453 9.23734 5.10342 11.0033C5.29364 12.1038 6.0272 12.9187 6.99164 13.4758C7.33119 13.666 7.65719 13.8562 8.02408 14.0736C7.61653 14.318 7.24986 14.5353 6.85586 14.7391C5.11697 15.8396 4.5192 18.0944 5.49742 19.9149C6.52986 21.8304 8.92075 22.564 10.8361 21.5315C12.901 20.3633 14.9659 19.1678 17.0172 17.9724C17.5063 17.6871 18.0225 17.4291 18.4572 17.0758C20.6443 15.2553 20.3183 11.9544 17.8323 10.5551ZM10.5374 15.0109V9.07445L15.6725 12.036L10.5374 15.0109Z" fill="#273775"/>
</svg>
