<svg width="24" height="24" viewBox="0 0 24 24" fill="none" xmlns="http://www.w3.org/2000/svg">
<path d="M18.1155 10.4106C17.7718 10.2163 17.4431 10.0071 17.0546 9.7829C17.4431 9.54383 17.8019 9.33458 18.1456 9.14025C19.7445 8.27345 20.6262 6.51028 20.3571 4.71703C19.9684 1.77344 16.5763 0.0701499 14.0062 1.53437C11.3762 3.04381 8.74622 4.52319 6.14607 6.07712C4.08394 7.31743 3.78498 8.96107 4.11376 10.9037C4.32301 12.1142 5.12992 13.0105 6.1908 13.6234C6.56431 13.8326 6.92291 14.0418 7.32649 14.2809C6.87818 14.5498 6.47485 14.7889 6.04145 15.013C4.12867 16.2235 3.47112 18.7039 4.54716 20.7064C5.68285 22.8135 8.31282 23.6204 10.4197 22.4847C12.6911 21.1997 14.9624 19.8845 17.2189 18.5697C17.7569 18.2558 18.3248 17.972 18.8029 17.5834C21.2087 15.5809 20.8501 11.9499 18.1155 10.4106ZM10.0912 15.312V8.7819L15.7398 12.0396L10.0912 15.312Z" fill="#273775"/>
</svg>
